<mxfile host="app.diagrams.net" agent="Mozilla/5.0 (Windows NT 10.0; Win64; x64) AppleWebKit/537.36 (KHTML, like Gecko) Chrome/134.0.0.0 Safari/537.36" version="26.1.0">
  <diagram name="Page-1" id="bVGCJr_JYSfrfPnrHQQ9">
    <mxGraphModel dx="1674" dy="788" grid="1" gridSize="10" guides="1" tooltips="1" connect="1" arrows="1" fold="1" page="1" pageScale="1" pageWidth="850" pageHeight="1100" math="0" shadow="0">
      <root>
        <mxCell id="0" />
        <mxCell id="1" parent="0" />
        <mxCell id="nrbQr30eY6MVjPExlfOz-1" value="VPC" style="points=[[0,0],[0.25,0],[0.5,0],[0.75,0],[1,0],[1,0.25],[1,0.5],[1,0.75],[1,1],[0.75,1],[0.5,1],[0.25,1],[0,1],[0,0.75],[0,0.5],[0,0.25]];outlineConnect=0;gradientColor=none;html=1;whiteSpace=wrap;fontSize=12;fontStyle=0;container=1;pointerEvents=0;collapsible=0;recursiveResize=0;shape=mxgraph.aws4.group;grIcon=mxgraph.aws4.group_vpc2;strokeColor=#8C4FFF;fillColor=none;verticalAlign=top;align=left;spacingLeft=30;fontColor=#AAB7B8;dashed=0;" vertex="1" parent="1">
          <mxGeometry x="290" y="40" width="390" height="350" as="geometry" />
        </mxCell>
        <mxCell id="nrbQr30eY6MVjPExlfOz-8" value="Internet&#xa;gateway" style="sketch=0;outlineConnect=0;fontColor=#232F3E;gradientColor=none;strokeColor=#232F3E;fillColor=#ffffff;dashed=0;verticalLabelPosition=bottom;verticalAlign=top;align=center;html=1;fontSize=12;fontStyle=0;aspect=fixed;shape=mxgraph.aws4.resourceIcon;resIcon=mxgraph.aws4.internet_gateway;" vertex="1" parent="nrbQr30eY6MVjPExlfOz-1">
          <mxGeometry x="-30" y="120" width="60" height="60" as="geometry" />
        </mxCell>
        <mxCell id="nrbQr30eY6MVjPExlfOz-9" value="Public subnet" style="points=[[0,0],[0.25,0],[0.5,0],[0.75,0],[1,0],[1,0.25],[1,0.5],[1,0.75],[1,1],[0.75,1],[0.5,1],[0.25,1],[0,1],[0,0.75],[0,0.5],[0,0.25]];outlineConnect=0;gradientColor=none;html=1;whiteSpace=wrap;fontSize=12;fontStyle=0;container=1;pointerEvents=0;collapsible=0;recursiveResize=0;shape=mxgraph.aws4.group;grIcon=mxgraph.aws4.group_security_group;grStroke=0;strokeColor=#7AA116;fillColor=#F2F6E8;verticalAlign=top;align=left;spacingLeft=30;fontColor=#248814;dashed=0;" vertex="1" parent="nrbQr30eY6MVjPExlfOz-1">
          <mxGeometry x="70" y="40" width="280" height="240" as="geometry" />
        </mxCell>
        <mxCell id="nrbQr30eY6MVjPExlfOz-10" value="Security group" style="fillColor=none;strokeColor=#DD3522;verticalAlign=top;fontStyle=0;fontColor=#DD3522;whiteSpace=wrap;html=1;" vertex="1" parent="nrbQr30eY6MVjPExlfOz-9">
          <mxGeometry x="140" y="55" width="130" height="130" as="geometry" />
        </mxCell>
        <mxCell id="nrbQr30eY6MVjPExlfOz-11" value="" style="sketch=0;points=[[0,0,0],[0.25,0,0],[0.5,0,0],[0.75,0,0],[1,0,0],[0,1,0],[0.25,1,0],[0.5,1,0],[0.75,1,0],[1,1,0],[0,0.25,0],[0,0.5,0],[0,0.75,0],[1,0.25,0],[1,0.5,0],[1,0.75,0]];outlineConnect=0;fontColor=#232F3E;fillColor=#ED7100;strokeColor=#ffffff;dashed=0;verticalLabelPosition=bottom;verticalAlign=top;align=center;html=1;fontSize=12;fontStyle=0;aspect=fixed;shape=mxgraph.aws4.resourceIcon;resIcon=mxgraph.aws4.ec2;" vertex="1" parent="nrbQr30eY6MVjPExlfOz-9">
          <mxGeometry x="175" y="90" width="60" height="60" as="geometry" />
        </mxCell>
        <mxCell id="nrbQr30eY6MVjPExlfOz-15" style="edgeStyle=none;curved=1;rounded=0;orthogonalLoop=1;jettySize=auto;html=1;fontSize=12;startSize=8;endSize=8;" edge="1" parent="nrbQr30eY6MVjPExlfOz-9">
          <mxGeometry relative="1" as="geometry">
            <mxPoint x="70" y="119.5" as="sourcePoint" />
            <mxPoint x="155" y="119.5" as="targetPoint" />
            <Array as="points">
              <mxPoint x="80" y="119.5" />
            </Array>
          </mxGeometry>
        </mxCell>
        <mxCell id="nrbQr30eY6MVjPExlfOz-14" value="" style="points=[];aspect=fixed;html=1;align=center;shadow=0;dashed=0;fillColor=#FF6A00;strokeColor=none;shape=mxgraph.alibaba_cloud.route_table;" vertex="1" parent="nrbQr30eY6MVjPExlfOz-9">
          <mxGeometry x="50" y="96.3" width="30" height="37.92" as="geometry" />
        </mxCell>
        <mxCell id="nrbQr30eY6MVjPExlfOz-16" style="edgeStyle=none;curved=1;rounded=0;orthogonalLoop=1;jettySize=auto;html=1;entryX=1;entryY=0.651;entryDx=0;entryDy=0;entryPerimeter=0;fontSize=12;startSize=8;endSize=8;" edge="1" parent="nrbQr30eY6MVjPExlfOz-9" source="nrbQr30eY6MVjPExlfOz-14" target="nrbQr30eY6MVjPExlfOz-14">
          <mxGeometry relative="1" as="geometry" />
        </mxCell>
        <mxCell id="nrbQr30eY6MVjPExlfOz-17" value="Route&lt;div&gt;Table&lt;/div&gt;&lt;div&gt;&lt;br&gt;&lt;/div&gt;" style="text;html=1;align=center;verticalAlign=middle;whiteSpace=wrap;rounded=0;" vertex="1" parent="nrbQr30eY6MVjPExlfOz-9">
          <mxGeometry x="35" y="140" width="60" height="30" as="geometry" />
        </mxCell>
        <mxCell id="nrbQr30eY6MVjPExlfOz-18" value="EC2" style="text;html=1;align=center;verticalAlign=middle;whiteSpace=wrap;rounded=0;" vertex="1" parent="nrbQr30eY6MVjPExlfOz-9">
          <mxGeometry x="175" y="140" width="60" height="30" as="geometry" />
        </mxCell>
        <mxCell id="nrbQr30eY6MVjPExlfOz-12" value="" style="points=[];aspect=fixed;html=1;align=center;shadow=0;dashed=0;fillColor=#FF6A00;strokeColor=none;shape=mxgraph.alibaba_cloud.network_acl_access_control_list;" vertex="1" parent="nrbQr30eY6MVjPExlfOz-1">
          <mxGeometry x="40" y="126.07" width="60" height="53.93" as="geometry" />
        </mxCell>
        <mxCell id="nrbQr30eY6MVjPExlfOz-13" value="NACL" style="text;html=1;align=center;verticalAlign=middle;whiteSpace=wrap;rounded=0;" vertex="1" parent="nrbQr30eY6MVjPExlfOz-1">
          <mxGeometry x="40" y="170" width="60" height="30" as="geometry" />
        </mxCell>
        <mxCell id="nrbQr30eY6MVjPExlfOz-7" value="" style="edgeStyle=none;curved=1;rounded=0;orthogonalLoop=1;jettySize=auto;html=1;fontSize=12;startSize=8;endSize=8;" edge="1" parent="1" source="nrbQr30eY6MVjPExlfOz-5" target="nrbQr30eY6MVjPExlfOz-8">
          <mxGeometry relative="1" as="geometry">
            <mxPoint x="240" y="180" as="targetPoint" />
          </mxGeometry>
        </mxCell>
        <mxCell id="nrbQr30eY6MVjPExlfOz-5" value="User" style="sketch=0;outlineConnect=0;fontColor=#232F3E;gradientColor=none;strokeColor=#232F3E;fillColor=#ffffff;dashed=0;verticalLabelPosition=bottom;verticalAlign=top;align=center;html=1;fontSize=12;fontStyle=0;aspect=fixed;shape=mxgraph.aws4.resourceIcon;resIcon=mxgraph.aws4.user;" vertex="1" parent="1">
          <mxGeometry x="40" y="160" width="60" height="60" as="geometry" />
        </mxCell>
      </root>
    </mxGraphModel>
  </diagram>
</mxfile>
